#!OML:ASF X:\für Bonn\!DataBase\2005_08_10_Bjorn_Final\c3d\bjorn.ASF
:FULLY-SPECIFIED
:DEGREES
162
root 0.766295 21.3938 0.776747 -170.848 -5.89154 -182.805
lowerback -2.4748 0.884676 3.90901
upperback 4.38338 0.80294 0.403763
thorax 5.99872 0.50325 -1.71454
lowerneck -4.09419 -1.91994 -0.511252
upperneck 10.0058 -2.58935 -2.06123
head 3.9669 -1.49112 -0.722781
rclavicle 7.55382e-015 2.70347e-014
rhumerus 67.7825 1.05967 -77.0769
rradius 8.78029
rwrist 53.9448
rhand -13.6515 8.76212
rfingers 7.12502
rthumb 12.4651 -20.8461
lclavicle 7.55382e-015 2.70347e-014
lhumerus 65.8027 -11.1816 81.4361
lradius 9.7326
lwrist -54.9036
lhand -21.1233 -6.46741
lfingers 7.12502
lthumb 5.25526 23.4474
rfemur 158.514 -167.491 -166.751
rtibia 29.6525
rfoot 13.3244 -2.40723
rtoes -19.8833
lfemur -22.4658 8.96167 -19.0988
ltibia 29.5781
lfoot 17.9433 -5.6501
ltoes -23.9275
163
root 0.779482 21.3512 0.733899 -171.121 -5.75679 -182.672
lowerback -2.6104 0.92293 3.87171
upperback 4.26476 0.868386 0.329557
thorax 5.95517 0.538414 -1.76469
lowerneck -3.71724 -1.93121 -0.731931
upperneck 10.1334 -2.63617 -1.79318
head 3.94414 -1.51768 -0.593465
rclavicle 1.64991e-014 3.02153e-014
rhumerus 67.7 1.04113 -77.2026
rradius 9.12529
rwrist 53.9669
rhand -13.5499 8.6959
rfingers 7.12502
rthumb 12.5631 -20.9064
lclavicle 1.64991e-014 3.02153e-014
lhumerus 65.9191 -11.2789 81.1039
lradius 9.71606
lwrist -55.0893
lhand -21.2995 -6.42772
lfingers 7.12502
lthumb 5.08515 23.4913
rfemur 158.929 -167.297 -166.691
rtibia 29.3641
rfoot 14.0192 -1.73937
rtoes -18.729
lfemur -22.1965 9.36648 -18.8827
ltibia 29.6831
lfoot 18.1311 -6.01698
ltoes -23.3092
164
root 0.793832 21.2941 0.688111 -171.433 -5.68997 -182.537
lowerback -2.75376 0.943526 3.83031
upperback 4.18348 0.90463 0.28036
thorax 5.95347 0.558132 -1.78839
lowerneck -3.35469 -1.94434 -0.969499
upperneck 10.2318 -2.68306 -1.54985
head 3.91442 -1.54601 -0.469488
rclavicle 5.76476e-015 1.59028e-015
rhumerus 67.6993 1.03345 -77.3029
rradius 9.38226
rwrist 54.0323
rhand -13.4876 8.62392
rfingers 7.12502
rthumb 12.6232 -20.9747
lclavicle 5.76476e-015 1.59028e-015
lhumerus 66.0765 -11.3442 80.7848
lradius 9.70775
lwrist -55.439
lhand -21.4284 -6.35723
lfingers 7.12502
lthumb 4.96068 23.5647
rfemur 159.43 -167.159 -166.651
rtibia 29.146
rfoot 14.364 -0.977208
rtoes -18.4236
lfemur -21.8254 9.68896 -18.6386
ltibia 29.8147
lfoot 18.1979 -6.50198
ltoes -22.2354
165
root 0.809147 21.2214 0.642377 -171.75 -5.65325 -182.402
lowerback -2.89015 0.939491 3.78991
upperback 4.10205 0.907623 0.234555
thorax 5.94557 0.561061 -1.81189
lowerneck -3.06429 -1.9358 -1.2661
upperneck 10.3852 -2.70216 -1.26961
head 3.92067 -1.5629 -0.323938
rclavicle 3.75703e-014 2.8625e-014
rhumerus 67.8 1.03921 -77.4066
rradius 9.47836
rwrist 54.1999
rhand -13.4495 8.58259
rfingers 7.12502
rthumb 12.6599 -21.0137
lclavicle 3.75703e-014 2.8625e-014
lhumerus 66.3868 -11.3395 80.44
lradius 9.52496
lwrist -55.9067
lhand -21.5256 -6.29166
lfingers 7.12502
lthumb 4.86688 23.6324
rfemur 159.957 -167.064 -166.626
rtibia 29.0406
rfoot 14.3727 -0.155104
rtoes -17.9909
lfemur -21.403 10.0196 -18.3926
ltibia 29.9288
lfoot 18.1438 -7.11327
ltoes -20.6624
166
root 0.821886 21.1346 0.59673 -172.1 -5.64075 -182.25
lowerback -3.00635 0.947484 3.82492
upperback 4.03242 0.923069 0.16709
thorax 5.94163 0.573799 -1.89932
lowerneck -2.73176 -1.94726 -1.50726
upperneck 10.476 -2.75213 -0.999243
head 3.89599 -1.59241 -0.191376
rclavicle -9.14409e-015 2.38542e-015
rhumerus 68.0279 0.976718 -77.5207
rradius 9.33144
rwrist 54.5092
rhand -13.5443 8.5008
rfingers 7.12502
rthumb 12.5685 -21.1011
lclavicle -9.14409e-015 2.38542e-015
lhumerus 66.8912 -11.3575 80.067
lradius 9.17225
lwrist -56.6132
lhand -21.5618 -6.17361
lfingers 7.12502
lthumb 4.83187 23.7513
rfemur 160.55 -167.039 -166.609
rtibia 29.0336
rfoot 13.9812 0.590027
rtoes -17.3537
lfemur -20.8845 10.2784 -18.1233
ltibia 30.0052
lfoot 17.8705 -7.76786
ltoes -19.2879
167
root 0.833699 21.0391 0.550657 -172.454 -5.64238 -182.134
lowerback -3.13558 0.94206 3.80441
upperback 3.97996 0.920954 0.11416
thorax 5.96064 0.57516 -1.94173
lowerneck -2.47125 -1.95049 -1.77886
upperneck 10.6065 -2.78754 -0.756613
head 3.9003 -1.61836 -0.0636841
rclavicle -1.25234e-014 4.77083e-015
rhumerus 68.41 0.947609 -77.614
rradius 8.96312
rwrist 54.8976
rhand -13.7186 8.45353
rfingers 7.12502
rthumb 12.4005 -21.1587
lclavicle -1.25234e-014 4.77083e-015
lhumerus 67.4577 -11.3384 79.7217
lradius 8.80733
lwrist -57.3692
lhand -21.4794 -6.03671
lfingers 7.12502
lthumb 4.91149 23.8864
rfemur 161.181 -166.848 -166.617
rtibia 29.1101
rfoot 13.239 1.58596
rtoes -17.4726
lfemur -20.2863 10.4527 -17.8817
ltibia 30.0319
lfoot 17.3964 -8.42066
ltoes -17.8206
168
root 0.844075 20.9367 0.505122 -172.818 -5.65838 -181.997
lowerback -3.27654 0.930897 3.8285
upperback 3.94625 0.907211 0.0478855
thorax 6.00686 0.573333 -2.02382
lowerneck -2.26657 -1.95081 -1.96304
upperneck 10.7613 -2.82015 -0.555514
head 3.92233 -1.64173 0.0342001
rclavicle -1.88845e-014 2.38542e-015
rhumerus 68.8823 0.900708 -77.7371
rradius 8.51598
rwrist 55.3588
rhand -13.8205 8.35218
rfingers 7.12502
rthumb 12.3022 -21.2659
lclavicle -1.88845e-014 2.38542e-015
lhumerus 68.042 -11.3285 79.3464
lradius 8.47449
lwrist -58.2003
lhand -21.2446 -5.84099
lfingers 7.12502
lthumb 5.1382 24.0767
rfemur 161.867 -166.686 -166.602
rtibia 29.2275
rfoot 12.1415 2.59564
rtoes -17.7137
lfemur -19.6237 10.5154 -17.6113
ltibia 30.0212
lfoot 16.6402 -9.0068
ltoes -16.4064
